<svg width="142" height="31" viewBox="0 0 142 31" fill="none" xmlns="http://www.w3.org/2000/svg">
<g clip-path="url(#clip0)">
<path d="M0 2.72122C0.00134103 2.5011 0.0871613 2.29047 0.238724 2.13531C0.390287 1.98015 0.595282 1.89306 0.808953 1.89307H3.23581C3.45036 1.89307 3.65612 1.98087 3.80783 2.13716C3.95954 2.29345 4.04477 2.50542 4.04477 2.72645V17.7204C4.04477 17.9414 4.13 18.1533 4.2817 18.3096C4.43341 18.4659 4.63917 18.5537 4.85372 18.5537H15.3718C15.5864 18.5537 15.7921 18.4659 15.9438 18.3096C16.0955 18.1533 16.1808 17.9414 16.1808 17.7204V15.2237C16.1808 15.0027 16.0955 14.7907 15.9438 14.6344C15.7921 14.4781 15.5864 14.3903 15.3718 14.3903H10.5181C9.87444 14.3903 9.25716 14.1269 8.80204 13.658C8.34691 13.1892 8.09123 12.5532 8.09123 11.8902V4.39321C8.09123 3.73013 8.34691 3.09421 8.80204 2.62534C9.25716 2.15648 9.87444 1.89307 10.5181 1.89307H17.7953C18.4389 1.89307 19.0562 2.15648 19.5113 2.62534C19.9665 3.09421 20.2221 3.73013 20.2221 4.39321V20.2292C20.2221 20.8923 19.9665 21.5282 19.5113 21.9971C19.0562 22.466 18.4389 22.7294 17.7953 22.7294H2.42686C1.78322 22.7294 1.16594 22.466 0.710811 21.9971C0.255686 21.5282 0 20.8923 0 20.2292V2.72122ZM16.1808 6.88813C16.1808 6.6671 16.0955 6.45512 15.9438 6.29883C15.7921 6.14255 15.5864 6.05474 15.3718 6.05474H12.136V9.39001C12.136 9.61104 12.2212 9.82302 12.3729 9.97931C12.5246 10.1356 12.7304 10.2234 12.9449 10.2234H16.1808V6.88813Z" fill="url(#paint0_linear)"/>
<path d="M28.8668 0.49823V23.669H32.7592V0.49823H28.8668ZM51.9236 16.9427C52.5346 10.2129 49.2158 6.83054 43.9119 6.83054C38.7637 6.83054 35.4822 10.4099 35.4822 15.3823C35.4822 20.6127 38.7316 24.0997 44.2013 24.0997C46.6146 24.0997 49.3495 23.2384 51.0233 21.4478L48.5135 18.8954C47.6131 19.8561 45.7143 20.4209 44.2656 20.4209C41.4986 20.4209 39.7927 18.9616 39.5355 16.934L51.9236 16.9427ZM39.5998 13.5952C40.1786 11.4734 41.9166 10.4134 44.0406 10.4134C46.2931 10.4134 47.9008 11.4734 48.1598 13.5952H39.5998ZM70.5532 23.6708V15.0859C70.5532 9.94787 67.5611 7.06591 63.8277 7.06591C61.8324 7.06591 60.2247 7.89405 58.6152 9.51897L58.3597 7.29779H54.8514V23.6725H58.7439V15.3178C58.7439 12.8316 60.3855 10.7429 62.8056 10.7429C65.3153 10.7429 66.6354 12.6328 66.6354 15.119V23.6708H70.5532ZM81.6162 10.7098C84.0939 10.7098 86.2178 12.6276 86.2178 15.4834C86.2178 18.4334 84.0939 20.2902 81.6162 20.2902C79.1065 20.2902 77.1112 18.334 77.1112 15.4834C77.1129 12.5282 79.1082 10.7098 81.6162 10.7098ZM86.4767 0.49823V9.54862C85.5442 7.85744 82.938 6.9334 81.2642 6.9334C76.6305 6.9334 73.1882 9.85024 73.1882 15.4852C73.1882 20.8551 76.6948 24.0369 81.3607 24.0369C83.2917 24.0369 85.2531 23.3744 86.4767 21.4217L86.734 23.676H90.403V0.49823H86.4767ZM106.367 9.02034C104.533 7.3623 102.668 6.8654 100.188 6.8654C97.2927 6.8654 93.495 8.19219 93.495 11.9703C93.495 15.6822 97.0676 16.8102 100.06 17.0421C102.312 17.1746 103.213 17.6383 103.213 18.7664C103.213 19.9589 101.828 20.7557 100.349 20.7226C98.5789 20.6894 96.0048 19.7288 94.8793 18.4351L92.9551 21.3171C95.272 23.8033 97.7818 24.2339 100.292 24.2339C104.829 24.2339 107.113 21.7477 107.113 18.864C107.113 14.521 103.316 13.8254 100.324 13.6336C98.2929 13.5011 97.3637 12.9048 97.3637 11.843C97.3637 10.8161 98.3927 10.2181 100.259 10.2181C101.772 10.2181 103.059 10.5825 104.184 11.6774L106.367 9.02034ZM117.281 20.1577C114.611 20.1577 112.776 18.0655 112.776 15.5165C112.776 12.9676 114.45 10.8754 117.281 10.8754C120.113 10.8754 121.786 12.9676 121.786 15.5165C121.786 18.0655 119.952 20.1577 117.281 20.1577ZM126.066 30.5V7.32917H122.402L122.145 9.58348C120.923 7.75981 118.799 6.96827 116.997 6.96827C112.106 6.96827 108.857 10.7133 108.857 15.52C108.857 20.2937 111.784 24.0718 116.868 24.0718C118.542 24.0718 121.02 23.5487 122.145 21.7512V30.5017L126.066 30.5ZM129.51 7.32917V23.6708H133.437V15.0528C133.437 12.0366 135.335 10.9085 137.395 10.9085C138.683 10.9085 139.426 11.2729 140.226 11.9686L141.997 8.45546C141.128 7.56105 139.551 6.89679 137.91 6.89679C136.3 6.89679 134.66 7.19492 133.437 9.21736L133.147 7.32743L129.51 7.32917Z" fill="#213F7D"/>
</g>
<defs>
<linearGradient id="paint0_linear" x1="-1.68729" y1="31.8878" x2="20.3843" y2="-3.68262" gradientUnits="userSpaceOnUse">
<stop stop-color="#213F7D"/>
<stop offset="1" stop-color="#39CDCC"/>
</linearGradient>
<clipPath id="clip0">
<rect width="142" height="30" fill="white" transform="translate(0 0.5)"/>
</clipPath>
</defs>
</svg>
